<svg width="1911" height="589" viewBox="0 0 1911 589" fill="none" xmlns="http://www.w3.org/2000/svg">
<path d="M3 585C8.76 582.697 32.76 571.947 41.4 569.644C50.04 567.34 51.96 570.796 60.6 569.644C69.24 568.492 90.36 564.269 99 561.966C107.64 559.662 109.56 554.288 118.2 554.288C126.84 554.288 145.08 561.966 156.6 561.966C168.12 561.966 183.48 555.67 195 554.288C206.52 552.906 219 555.631 233.4 552.752C247.8 549.873 273.72 537.166 291 535.093C308.28 533.02 334.2 540.083 348.6 538.932C363 537.78 372.6 530.064 387 527.415C401.4 524.766 430.2 524.151 444.6 521.272C459 518.393 468.6 511.329 483 508.219C497.4 505.11 526.2 503.997 540.6 500.541C555 497.086 564.6 488.065 579 485.185C593.4 482.306 622.2 482.728 636.6 481.346C651 479.964 660.6 477.93 675 475.972C689.4 474.014 718.2 471.518 732.6 468.294C747 465.069 756.6 457.122 771 454.473C785.4 451.824 814.2 449.943 828.6 450.634C843 451.325 852.6 459.656 867 459.08C881.4 458.504 910.2 449.79 924.6 446.795C939 443.801 948.6 447.179 963 439.117C977.4 431.055 1006.2 403.414 1020.6 393.049C1035 382.683 1044.6 379.228 1059 370.015C1073.4 360.801 1102.2 340.838 1116.6 331.624C1131 322.411 1140.6 313.197 1155 308.59C1169.4 303.983 1198.2 303.215 1212.6 300.912C1227 298.609 1236.6 301.296 1251 293.234C1265.4 285.172 1294.2 260.986 1308.6 247.166C1323 233.345 1332.6 209.735 1347 201.097C1361.4 192.46 1390.2 194.187 1404.6 189.58C1419 184.973 1428.6 197.453 1443 195.725C1457.4 193.998 1486.2 181.518 1500.6 178.063C1515 174.608 1524.6 155.413 1539 147.351C1553.4 139.289 1582.2 130.075 1596.6 124.317C1611 118.558 1620.6 112.416 1635 108.961C1649.4 105.506 1678.2 105.89 1692.6 101.283C1707 96.6759 1716.6 82.8553 1731 78.2485C1745.4 73.6417 1774.2 76.329 1788.6 70.5705C1803 64.8119 1812.6 47.9202 1827 39.8582C1841.4 31.7963 1870.2 8.76087 1884.6 4.15404C1899 -0.452795 1917.24 10.2977 1923 9.14604" stroke="url(#paint0_linear_1467_6446)" stroke-opacity="0.6" stroke-width="6" stroke-linecap="round"/>
<g opacity="0.3">
<path d="M3 589C8.76 586.697 32.76 575.947 41.4 573.644C50.04 571.34 51.96 574.796 60.6 573.644C69.24 572.492 90.36 568.269 99 565.966C107.64 563.662 109.56 558.288 118.2 558.288C126.84 558.288 145.08 565.966 156.6 565.966C168.12 565.966 183.48 559.67 195 558.288C206.52 556.906 219 559.631 233.4 556.752C247.8 553.873 273.72 541.166 291 539.093C308.28 537.02 334.2 544.083 348.6 542.932C363 541.78 372.6 534.064 387 531.415C401.4 528.766 430.2 528.151 444.6 525.272C459 522.393 468.6 515.329 483 512.219C497.4 509.11 526.2 507.997 540.6 504.541C555 501.086 564.6 492.065 579 489.185C593.4 486.306 622.2 486.728 636.6 485.346C651 483.964 660.6 481.93 675 479.972C689.4 478.014 718.2 475.518 732.6 472.294C747 469.069 756.6 461.122 771 458.473C785.4 455.824 814.2 453.943 828.6 454.634C843 455.325 852.6 463.656 867 463.08C881.4 462.504 910.2 453.79 924.6 450.795C939 447.801 948.6 451.179 963 443.117C977.4 435.055 1006.2 407.414 1020.6 397.049C1035 386.683 1044.6 383.228 1059 374.015C1073.4 364.801 1102.2 344.838 1116.6 335.624C1131 326.411 1140.6 317.197 1155 312.59C1169.4 307.983 1198.2 307.215 1212.6 304.912C1227 302.609 1236.6 305.296 1251 297.234C1265.4 289.172 1294.2 264.986 1308.6 251.166C1323 237.345 1332.6 213.735 1347 205.097C1361.4 196.46 1390.2 198.187 1404.6 193.58C1419 188.973 1428.6 201.453 1443 199.725C1457.4 197.998 1486.2 185.518 1500.6 182.063C1515 178.608 1524.6 159.413 1539 151.351C1553.4 143.289 1582.2 134.075 1596.6 128.317C1611 122.558 1620.6 116.416 1635 112.961C1649.4 109.506 1678.2 109.89 1692.6 105.283C1707 100.676 1716.6 86.8553 1731 82.2485C1745.4 77.6417 1774.2 80.329 1788.6 74.5705C1803 68.8119 1812.6 51.9202 1827 43.8582C1841.4 35.7963 1870.2 12.7609 1884.6 8.15404C1899 3.54721 1917.24 14.2977 1923 13.146V589H3Z" fill="url(#paint1_linear_1467_6446)" fill-opacity="0.9"/>
<path d="M3 589C8.76 586.697 32.76 575.947 41.4 573.644C50.04 571.34 51.96 574.796 60.6 573.644C69.24 572.492 90.36 568.269 99 565.966C107.64 563.662 109.56 558.288 118.2 558.288C126.84 558.288 145.08 565.966 156.6 565.966C168.12 565.966 183.48 559.67 195 558.288C206.52 556.906 219 559.631 233.4 556.752C247.8 553.873 273.72 541.166 291 539.093C308.28 537.02 334.2 544.083 348.6 542.932C363 541.78 372.6 534.064 387 531.415C401.4 528.766 430.2 528.151 444.6 525.272C459 522.393 468.6 515.329 483 512.219C497.4 509.11 526.2 507.997 540.6 504.541C555 501.086 564.6 492.065 579 489.185C593.4 486.306 622.2 486.728 636.6 485.346C651 483.964 660.6 481.93 675 479.972C689.4 478.014 718.2 475.518 732.6 472.294C747 469.069 756.6 461.122 771 458.473C785.4 455.824 814.2 453.943 828.6 454.634C843 455.325 852.6 463.656 867 463.08C881.4 462.504 910.2 453.79 924.6 450.795C939 447.801 948.6 451.179 963 443.117C977.4 435.055 1006.2 407.414 1020.6 397.049C1035 386.683 1044.6 383.228 1059 374.015C1073.4 364.801 1102.2 344.838 1116.6 335.624C1131 326.411 1140.6 317.197 1155 312.59C1169.4 307.983 1198.2 307.215 1212.6 304.912C1227 302.609 1236.6 305.296 1251 297.234C1265.4 289.172 1294.2 264.986 1308.6 251.166C1323 237.345 1332.6 213.735 1347 205.097C1361.4 196.46 1390.2 198.187 1404.6 193.58C1419 188.973 1428.6 201.453 1443 199.725C1457.4 197.998 1486.2 185.518 1500.6 182.063C1515 178.608 1524.6 159.413 1539 151.351C1553.4 143.289 1582.2 134.075 1596.6 128.317C1611 122.558 1620.6 116.416 1635 112.961C1649.4 109.506 1678.2 109.89 1692.6 105.283C1707 100.676 1716.6 86.8553 1731 82.2485C1745.4 77.6417 1774.2 80.329 1788.6 74.5705C1803 68.8119 1812.6 51.9202 1827 43.8582C1841.4 35.7963 1870.2 12.7609 1884.6 8.15404C1899 3.54721 1917.24 14.2977 1923 13.146V589H3Z" fill="url(#paint2_linear_1467_6446)" fill-opacity="0.9"/>
</g>
<defs>
<linearGradient id="paint0_linear_1467_6446" x1="3" y1="9.14634" x2="3" y2="111155" gradientUnits="userSpaceOnUse">
<stop offset="0.2341" stop-color="#DC872D" stop-opacity="0.4"/>
<stop offset="0.5" stop-color="#121417" stop-opacity="0.4"/>
</linearGradient>
<linearGradient id="paint1_linear_1467_6446" x1="3" y1="13.1463" x2="3" y2="111159" gradientUnits="userSpaceOnUse">
<stop offset="0.2341" stop-color="#DC872D" stop-opacity="0.4"/>
<stop offset="0.5" stop-color="#121417" stop-opacity="0.4"/>
</linearGradient>
<linearGradient id="paint2_linear_1467_6446" x1="963" y1="367.908" x2="963" y2="589" gradientUnits="userSpaceOnUse">
<stop stop-opacity="0"/>
<stop offset="0.3" stop-opacity="0.3"/>
<stop offset="0.495192" stop-opacity="0.5"/>
<stop offset="1"/>
</linearGradient>
</defs>
</svg>
