<svg width="170" height="170" viewBox="0 0 170 170" fill="none" xmlns="http://www.w3.org/2000/svg">
<circle cx="85" cy="85" r="85" fill="#FF975B"/>
<ellipse cx="85" cy="124" rx="27" ry="4" fill="#F08547"/>
<path d="M100.043 95.9454C100.043 97.4601 98.6139 98.7302 98.1697 100.097C97.7098 101.514 98.1036 103.378 97.2459 104.557C96.3795 105.748 94.4779 105.946 93.2873 106.812C92.1083 107.67 91.3376 109.422 89.9214 109.882C88.5545 110.326 86.9076 109.376 85.3928 109.376C83.878 109.376 82.2311 110.326 80.8642 109.882C79.4474 109.422 78.6773 107.67 77.4983 106.812C76.3077 105.946 74.4061 105.748 73.5397 104.557C72.6815 103.378 73.0758 101.513 72.6159 100.097C72.1723 98.7302 70.7422 97.4601 70.7422 95.9454C70.7422 94.4306 72.1717 93.1606 72.6159 91.7937C73.0758 90.377 72.682 88.5125 73.5397 87.3335C74.4061 86.1429 76.3077 85.9452 77.4983 85.0788C78.6773 84.2205 79.448 82.4685 80.8642 82.0087C82.2311 81.565 83.878 82.5149 85.3928 82.5149C86.9076 82.5149 88.5545 81.565 89.9214 82.0087C91.3382 82.4685 92.1083 84.2205 93.2873 85.0788C94.4779 85.9452 96.3795 86.1429 97.2459 87.3335C98.1041 88.5125 97.7098 90.3775 98.1697 91.7937C98.6133 93.1606 100.043 94.4306 100.043 95.9454Z" stroke="white" stroke-width="2.5" stroke-linecap="round" stroke-linejoin="round"/>
<path d="M85.3957 103.177C89.3896 103.177 92.6274 99.9394 92.6274 95.9455C92.6274 91.9516 89.3896 88.7139 85.3957 88.7139C81.4018 88.7139 78.1641 91.9516 78.1641 95.9455C78.1641 99.9394 81.4018 103.177 85.3957 103.177Z" stroke="white" stroke-width="2.5" stroke-linecap="round" stroke-linejoin="round"/>
<path d="M72.2239 79.1004L53 47.2371L63.9722 41L85.3922 76.6102" stroke="white" stroke-width="2.5" stroke-linecap="round" stroke-linejoin="round"/>
<path d="M98.7231 79.1004L117.783 47.2371L106.811 41L85.3906 76.6102" stroke="white" stroke-width="2.5" stroke-linecap="round" stroke-linejoin="round"/>
<path d="M99.6276 52.9443H71.1562" stroke="white" stroke-width="2.5" stroke-linecap="round" stroke-linejoin="round"/>
<path d="M63.9766 41H106.327" stroke="white" stroke-width="2.5" stroke-linecap="round" stroke-linejoin="round"/>
</svg>
