<svg width="80" height="80" viewBox="0 0 80 80" fill="none" xmlns="http://www.w3.org/2000/svg">
<path d="M60.55 24.1916C60.3686 24.0245 60.1051 23.9477 59.9485 23.7422L55.2858 28.6625C55.1617 29.3673 59.2001 31.6661 58.1461 32.8722L37.3892 53.6672C35.1247 55.0807 32.5069 55.2478 30.1622 53.9419C28.6843 55.703 26.796 55.993 24.667 55.2632L16.428 63.5021C14.3086 63.9995 14.9349 62.6897 15.8418 61.5701C17.0639 60.0625 18.956 58.674 20.3365 57.2566C21.3428 56.2215 22.2765 54.9521 23.3686 53.9592C22.4063 52.4861 22.202 50.9632 22.9715 49.3423C23.1624 48.9409 24.077 47.9384 24.0885 47.8443C24.1171 47.5889 23.6779 46.8629 23.5901 46.4846C23.065 44.2242 23.1319 42.6091 24.3768 40.5753L43.0677 21.3454C43.988 20.6444 45.1317 21.789 44.2 22.6801L26.4408 40.7289C23.762 44.0859 24.8789 46.4481 27.4662 49.2117C30.0858 52.0118 32.8239 54.7062 36.7438 52.0521L56.2195 32.5591L44.2362 20.3314C44.0491 19.519 44.4826 18.9313 45.3551 19.2079C46.1819 19.4691 48.5572 22.6552 49.0441 22.5707L53.8481 17.7867C54.1039 17.539 53.9512 17.5467 53.8137 17.3873C52.8724 16.2964 51.6275 15.5167 50.7167 14.3951C50.2584 13.7402 50.6747 12.8703 51.5091 13.0162L64.8346 26.1312C65.1516 26.4635 64.9549 26.8668 64.7277 27.1971L63.8093 27.3508C62.6579 26.3732 61.6574 25.2113 60.5519 24.1896L60.55 24.1916ZM59.0893 22.9682L58.9022 22.4842L55.009 18.9505L50.1171 23.8343L54.0084 27.5716C55.2228 26.4116 56.7102 24.2799 58.0372 23.3542C58.3752 23.118 58.654 22.9452 59.0893 22.9701V22.9682ZM25.4804 49.2828C24.7777 49.3212 24.2641 50.3813 24.1839 50.967C23.8307 53.5789 27.0385 55.0308 28.7263 53.0277C28.7263 52.7646 25.4365 50.1643 25.4804 49.2847V49.2828Z" fill="white"/>
<path d="M40.6313 34.3608C40.8695 34.1227 41.2555 34.1227 41.4937 34.3608L48.9506 41.8178L48.0883 42.6801L40.6313 35.2232C40.3932 34.985 40.3932 34.599 40.6313 34.3608V34.3608Z" fill="white"/>
<path d="M38.6001 36.6021C38.8382 36.3639 39.2243 36.3639 39.4624 36.6021L46.9194 44.059L46.0571 44.9213L38.6001 37.4644C38.362 37.2262 38.362 36.8402 38.6001 36.6021V36.6021Z" fill="white"/>
</svg>
