<svg width="80" height="80" viewBox="0 0 80 80" fill="none" xmlns="http://www.w3.org/2000/svg">
<path d="M56.152 23.2887C55.9026 23.5969 55.8397 24.0182 55.9885 24.3871C56.7662 26.3113 55.3031 27.7744 53.3704 27.4852C50.9492 27.1225 51.0981 25.3849 49.4169 25.1333L48.656 25.0201L48.2682 27.6005C48.1299 28.5269 47.2893 29.183 46.3565 29.0929L36.8208 28.1769C35.8147 28.0805 35.0957 27.1603 35.2466 26.1604L36.846 15.5017C36.9969 14.5018 37.9528 13.8331 38.9422 14.0365L48.3269 15.9607C49.245 16.1494 49.855 17.0213 49.7167 17.9478L49.3289 20.5281L50.0898 20.6413C51.771 20.8929 52.1378 19.1887 54.5589 19.5535C56.4916 19.8427 57.4621 21.6726 56.1499 23.2908L56.152 23.2887Z" stroke="white" stroke-width="1.4" stroke-linecap="round" stroke-linejoin="round"/>
<path d="M54.8118 39.6744C54.6106 40.0161 54.6106 40.4416 54.8118 40.7833C55.8662 42.5713 54.6357 44.2356 52.6821 44.2356C50.2337 44.2356 50.1226 42.4958 48.4226 42.4958H47.6533V45.1034C47.6533 46.0404 46.9196 46.8138 45.9847 46.862L36.4176 47.3714C35.4094 47.4259 34.5625 46.621 34.5625 45.6128V34.8345C34.5625 33.8242 35.4094 33.0214 36.4176 33.0759L45.9847 33.5852C46.9196 33.6355 47.6533 34.409 47.6533 35.3439V37.9514H48.4226C50.1226 37.9514 50.2337 36.2117 52.6821 36.2117C54.6357 36.2117 55.8662 37.876 54.8097 39.6724L54.8118 39.6744Z" stroke="white" stroke-width="1.4" stroke-linecap="round" stroke-linejoin="round"/>
<path d="M36.9781 28.1885C37.062 29.9387 36.8272 31.7246 36.5547 33.0871" stroke="white" stroke-width="1.4" stroke-linecap="round" stroke-linejoin="round"/>
<path d="M45.7067 29.0303C45.4447 30.5122 45.2372 32.0759 45.3252 33.5579" stroke="white" stroke-width="1.4" stroke-linecap="round" stroke-linejoin="round"/>
<path d="M56.2195 56.0081C56.0727 56.377 56.1398 56.7983 56.3914 57.1044C57.7099 58.7079 56.7519 60.542 54.8213 60.8439C52.4023 61.2233 52.0229 59.5212 50.3438 59.7832L49.585 59.9027L49.9896 62.4788C50.1342 63.4053 49.5305 64.2815 48.6144 64.4764L39.2423 66.4615C38.255 66.6711 37.2929 66.0087 37.1356 65.0109L35.4671 54.3627C35.3099 53.3649 36.0226 52.4405 37.0287 52.3378L46.5581 51.361C47.4909 51.2646 48.3336 51.9165 48.4782 52.8409L48.8828 55.417L49.6416 55.2975C51.3206 55.0355 51.1613 53.2978 53.5803 52.9184C55.5109 52.6166 56.9846 54.0692 56.2195 56.0081Z" stroke="white" stroke-width="1.4" stroke-linecap="round" stroke-linejoin="round"/>
<path d="M36.8125 47.3809C37.1668 49.0976 37.2108 50.9317 37.1521 52.3193" stroke="white" stroke-width="1.4" stroke-linecap="round" stroke-linejoin="round"/>
<path d="M45.5628 46.8887C45.5335 48.3937 45.5712 49.97 45.8856 51.4205" stroke="white" stroke-width="1.4" stroke-linecap="round" stroke-linejoin="round"/>
<path d="M23.3125 34.5921L28.509 32.9697" stroke="white" stroke-width="1.4" stroke-linecap="round" stroke-linejoin="round"/>
<path d="M26.7344 21.374L30.4908 25.3147" stroke="white" stroke-width="1.4" stroke-linecap="round" stroke-linejoin="round"/>
<path d="M22.8906 27.4336L29.5041 29.1461" stroke="white" stroke-width="1.4" stroke-linecap="round" stroke-linejoin="round"/>
<path d="M24.9375 58.1374L29.2221 54.7773" stroke="white" stroke-width="1.4" stroke-linecap="round" stroke-linejoin="round"/>
<path d="M23.4453 44.5547L28.3546 46.9086" stroke="white" stroke-width="1.4" stroke-linecap="round" stroke-linejoin="round"/>
<path d="M22 51.5819L28.7896 50.8398" stroke="white" stroke-width="1.4" stroke-linecap="round" stroke-linejoin="round"/>
</svg>
