<svg width="80" height="80" viewBox="0 0 80 80" fill="none" xmlns="http://www.w3.org/2000/svg">
<path d="M45.7166 35.9949C38.4824 43.4651 31.227 50.9231 23.9998 58.3986C21.9768 60.1287 19.9468 57.7682 21.6183 55.8507C33.2043 45.1234 44.191 33.7096 55.8052 23.0191C56.1181 22.7319 58.0251 21.0158 58.1885 21.0001C59.0093 20.9913 59.1939 21.8984 58.8037 22.5078C54.4589 27.0204 50.0719 31.498 45.7149 35.9949H45.7166ZM22.4145 57.6054C22.7414 57.9241 24.4093 56.0749 24.7028 55.7719C25.9015 54.5356 27.0088 53.1453 28.2092 51.9107C30.4221 49.6343 33.2412 47.2808 35.2449 44.9115C35.4119 44.7154 35.6702 44.6261 35.5947 44.2986L22.8503 56.5529L22.4145 57.6054Z" fill="white"/>
</svg>
