<svg width="80" height="80" viewBox="0 0 80 80" fill="none" xmlns="http://www.w3.org/2000/svg">
<path d="M37.8222 36.5244C32.5524 30.5813 34.9348 23.8947 39.6038 19.3848C42.1685 21.8607 44.0412 24.9959 44.3382 28.3018C44.3802 28.7647 44.3896 29.2323 44.3662 29.7022" stroke="white" stroke-width="1.5" stroke-miterlimit="22.93"/>
<path d="M39.6016 28.5078V36.5247" stroke="white" stroke-width="1.5" stroke-miterlimit="22.93"/>
<path d="M51.4223 30.8174L46.2109 36.5244" stroke="white" stroke-width="1.5" stroke-miterlimit="22.93"/>
<path d="M42.6094 36.5246C43.0092 26.4479 51.1126 22.2092 59.4989 21.9707C59.8425 27.4673 58.4585 33.0012 54.6359 36.5246" stroke="white" stroke-width="1.5" stroke-miterlimit="22.93"/>
<path d="M27.1013 36.5244C24.9083 32.0425 22.4324 27.7056 19.9588 26.4244C19.1101 25.9848 18.5186 25.7206 17.9949 24.9912C16.7137 23.1606 17.4058 20.4625 19.5403 18.9662C21.6749 17.4699 24.4477 17.7411 25.7313 19.5741C26.2363 20.3152 26.283 20.9605 26.4046 21.9097C26.919 25.8703 33.325 31.977 37.8677 36.5244" stroke="white" stroke-width="1.5" stroke-miterlimit="22.93"/>
<path d="M31.2358 53.9936C26.9409 50.987 23.6608 46.6337 22.0078 41.5439" stroke="white" stroke-width="1.5" stroke-miterlimit="22.93"/>
<path fill-rule="evenodd" clip-rule="evenodd" d="M39.6469 62.7634H29.0161V59.0601C21.3265 55.3287 15.5822 45.4975 15 36.5244H64.2891C63.7092 45.4975 57.9625 55.3287 50.2753 59.0601V62.7634H39.6445H39.6469Z" stroke="white" stroke-width="1.5" stroke-miterlimit="22.93"/>
</svg>
