<svg width="80" height="80" viewBox="0 0 80 80" fill="none" xmlns="http://www.w3.org/2000/svg">
<path d="M62.3433 23.0554L54.5265 22.6345L56.6923 21.4003C57.0328 21.2064 57.151 20.7714 56.9572 20.4309C56.7633 20.0904 56.3282 19.9722 55.9877 20.1661L52.7864 21.9914V19.4284C52.7864 17.5369 51.2495 16 49.358 16H29.7004C27.8088 16 26.272 17.5369 26.272 19.4284V22.8142C24.2812 24.4976 22.2903 26.1811 20.2995 27.8646C20.1104 28.0206 20.0205 28.2665 20.0536 28.5077C20.0867 28.7488 20.2428 28.9569 20.4698 29.0562C21.3824 29.4629 22.3471 29.7088 23.3307 29.7939C23.4394 29.8034 23.5435 29.8128 23.6097 29.8128C24.7777 29.8743 25.5343 29.6568 26.2673 29.444C26.778 29.2974 27.2603 29.1602 27.9176 29.113C28.2013 29.0893 28.5276 29.0846 28.8113 29.113C29.5443 29.1697 30.003 29.3589 30.5374 29.5811C31.2041 29.8601 31.9655 30.1769 33.2564 30.1958C34.5758 30.21 35.9045 29.9121 37.205 29.3021C37.8954 28.9853 38.5669 28.8056 39.1911 28.7678C39.2809 28.7678 39.3755 28.7583 39.4984 28.7583C39.5977 28.7583 39.6923 28.7583 39.7916 28.7583C39.9429 28.763 40.0943 28.7819 40.2456 28.8056C40.3023 28.815 40.3638 28.8245 40.4205 28.8387C40.5199 28.8576 40.6144 28.8765 40.7137 28.9002C40.7799 28.9143 40.8414 28.9333 40.9076 28.9522C41.0022 28.9805 41.1015 29.0089 41.1961 29.042C41.2575 29.0657 41.3237 29.0846 41.3852 29.1082C41.5034 29.1508 41.6264 29.2028 41.7446 29.2548C41.7824 29.269 41.8203 29.2832 41.8534 29.3021C43.1538 29.9027 44.4069 30.1911 45.6884 30.1911C45.7263 30.1911 45.7594 30.1911 45.7972 30.1911C47.0645 30.1769 47.8211 29.8696 48.4784 29.5906C48.4879 29.5858 48.5021 29.5811 48.5115 29.5764C48.521 29.5764 48.5257 29.5716 48.5352 29.5669C49.0601 29.3494 49.514 29.1602 50.2517 29.1035C50.5213 29.0799 50.8381 29.0799 51.1407 29.1035C51.7838 29.1508 52.2662 29.2879 52.7769 29.4345C53.5004 29.6426 54.2428 29.8554 55.3919 29.8034C55.4818 29.8034 55.5811 29.7939 55.7087 29.7797C56.7018 29.6946 57.6665 29.444 58.5791 29.042C58.6122 29.0278 58.6359 29.0089 58.6642 28.99C58.6879 28.9758 58.7115 28.9664 58.7304 28.9474C58.8723 28.834 58.9669 28.6732 58.9905 28.4935C59.0236 28.2523 58.9338 28.0111 58.7446 27.8504C57.2361 26.5783 55.7277 25.3015 54.2192 24.0248L62.2487 24.4598C62.2487 24.4598 62.277 24.4598 62.2865 24.4598C62.6601 24.4598 62.9722 24.1666 62.9958 23.7883C63.0147 23.3958 62.7168 23.0648 62.3243 23.0412L62.3433 23.0554ZM27.6906 19.4236C27.6906 18.3171 28.5938 17.4139 29.7004 17.4139H49.358C50.4645 17.4139 51.3677 18.3171 51.3677 19.4236V22.4312H27.6906V19.4236ZM39.4748 27.3397C39.3566 27.3397 39.2431 27.3397 39.1201 27.3491C38.3068 27.3964 37.4603 27.6187 36.6044 28.0111C35.479 28.536 34.3913 28.7914 33.2753 28.7725C32.2586 28.7583 31.7148 28.5313 31.0859 28.2665C30.5232 28.0301 29.8848 27.7652 28.9343 27.6896C28.7404 27.6707 28.5324 27.6659 28.3054 27.6659C28.1257 27.6659 27.9602 27.6754 27.8136 27.6896C27.0191 27.7463 26.4139 27.9213 25.8795 28.0726C25.2033 28.2665 24.6216 28.4367 23.6522 28.3847C23.5955 28.3847 23.534 28.38 23.4631 28.3705C23.028 28.3327 22.5883 28.257 22.1627 28.1388C23.8556 26.7107 25.5485 25.2779 27.2414 23.8451H27.8278L51.9021 23.9113C53.5713 25.3205 55.2359 26.7296 56.9051 28.1388C56.5505 28.2334 56.1911 28.2949 55.8317 28.3374C55.756 28.3469 55.6756 28.3611 55.6 28.3658C55.5101 28.3753 55.425 28.38 55.3446 28.3847C54.4272 28.4225 53.8551 28.2618 53.1883 28.0679C52.6539 27.9118 52.0487 27.7416 51.2684 27.6849C50.909 27.6518 50.4692 27.6565 50.1477 27.6849C49.183 27.7605 48.5446 28.0253 47.9819 28.2618C47.353 28.5266 46.8092 28.7536 45.7972 28.763C45.7641 28.763 45.7357 28.763 45.7026 28.763C44.8893 28.763 44.0806 28.6212 43.2578 28.328C42.993 28.2334 42.7329 28.1294 42.4634 28.0064C42.4161 27.9875 42.3735 27.9686 42.3263 27.9497C42.1749 27.8835 42.0283 27.822 41.877 27.7652C41.8014 27.7369 41.7304 27.7132 41.6548 27.6896C41.5224 27.647 41.39 27.6045 41.2575 27.5666C41.1913 27.5477 41.1204 27.5288 41.0542 27.5146C40.8982 27.4768 40.7374 27.4437 40.5813 27.42C40.5435 27.4153 40.5009 27.4059 40.4631 27.3964C40.4442 27.3964 40.4253 27.3869 40.4064 27.3869C40.3874 27.3869 40.3638 27.3869 40.3449 27.3869C40.1746 27.3633 40.0044 27.3444 39.8389 27.3397C39.716 27.3397 39.5883 27.3302 39.4795 27.3397H39.4748Z" fill="white"/>
<path d="M57.4785 30.2858C57.2752 29.95 56.8354 29.846 56.5044 30.0493C56.1686 30.2527 56.0646 30.6925 56.2679 31.0235C57.2515 32.6313 58.0885 34.3478 58.7553 36.1306C60.0131 39.488 60.6515 43.011 60.6515 46.6001C60.6515 51.3384 58.3533 55.8071 54.4994 58.5593C54.4426 58.6018 54.3953 58.6491 54.3575 58.7011C50.1394 59.6043 45.822 60.1198 41.5235 60.238C35.9057 60.394 30.2737 59.8833 24.7741 58.7106C24.7458 58.6633 24.7127 58.6207 24.6796 58.5782C24.6796 58.5782 24.6796 58.5687 24.6701 58.564C24.6417 58.5356 24.6086 58.5072 24.5755 58.4836C20.7263 55.7362 18.4281 51.2722 18.4281 46.5292C18.4281 41.4978 19.7096 36.5183 22.1402 32.1206C22.1497 32.1016 22.1591 32.0875 22.1638 32.0685L22.6698 30.9431C22.8306 30.5837 22.6698 30.1676 22.3152 30.0068C21.9558 29.846 21.5396 30.0068 21.3789 30.3614L20.8823 31.4585C18.3382 36.0644 17 41.2755 17 46.5434C17 51.8113 19.407 56.384 23.4454 59.4152V60.4177C23.4454 61.5573 24.2114 62.5456 25.318 62.8199C29.9191 63.9643 34.6526 64.5412 39.3956 64.5412H39.4996C44.1906 64.5317 48.8816 63.9548 53.4496 62.8199C54.5514 62.5456 55.3174 61.5573 55.3174 60.4177V59.7131C59.545 56.6961 62.0654 51.7924 62.0654 46.6001C62.0654 42.8407 61.3987 39.1523 60.0793 35.6341C59.3795 33.7709 58.5047 31.9692 57.4738 30.2858H57.4785ZM53.1044 61.4438C48.6498 62.5504 44.0724 63.1131 39.4949 63.1226C34.8418 63.1415 30.1792 62.5646 25.6584 61.4438C25.1903 61.3256 24.864 60.9047 24.864 60.4177V60.1765C29.6826 61.1743 34.6053 61.685 39.5233 61.685C40.1995 61.685 40.8757 61.6755 41.5519 61.6566C45.6849 61.5431 49.832 61.0655 53.8941 60.2427V60.4177C53.8941 60.9047 53.5678 61.3256 53.0996 61.4438H53.1044Z" fill="white"/>
<path d="M24.557 51.7873C29.4796 52.525 34.4922 52.9033 39.4527 52.908H39.5803C44.555 52.908 49.577 52.5297 54.5092 51.7873C54.8165 51.74 55.0577 51.4989 55.105 51.1915C55.4691 48.7798 55.6441 46.3114 55.6204 43.8571C55.6015 41.7008 55.4265 39.5208 55.105 37.3834C55.0482 37.0146 54.7172 36.745 54.3436 36.7828C49.5014 37.1942 44.574 37.4023 39.6938 37.407C34.7002 37.426 29.6451 37.199 24.7177 36.7828C24.3489 36.7592 24.0084 37.0146 23.9564 37.3881C23.6301 39.6107 23.4551 41.871 23.4457 44.103C23.4362 46.4627 23.6065 48.846 23.9564 51.1915C24.0037 51.4989 24.2449 51.7448 24.5522 51.7873H24.557ZM25.2757 38.2535C30.0282 38.6365 34.8846 38.8115 39.7033 38.8257C44.399 38.8257 49.1372 38.6318 53.8046 38.2535C54.0552 40.1166 54.1923 42.0034 54.2112 43.8713C54.2302 46.0749 54.0883 48.2927 53.7856 50.4632C49.0521 51.1489 44.2287 51.4752 39.4621 51.4894C34.7428 51.4894 29.9809 51.1395 25.2946 50.4632C25.0062 48.3589 24.8643 46.2215 24.8738 44.1125C24.8832 42.1689 25.0156 40.2018 25.2757 38.2535Z" fill="white"/>
</svg>
