<svg width="131" height="39" viewBox="0 0 131 39" fill="none" xmlns="http://www.w3.org/2000/svg">
<path d="M37.5557 20.2641H43.7939V18.9324H38.6365V11.8809H40.9053V13.6016H49.0506V11.8809H51.3194V18.9324H46.162V20.2641H52.4042V22.0691H37.5518V20.2641H37.5557ZM38.6405 22.7108H40.9092V24.953H51.4903V26.8423H38.6405V22.7108ZM49.0546 17.1434V15.3906H40.9092V17.1434H49.0546Z" fill="#231815"/>
<path d="M53.8272 12.2378H56.096V17.0592H60.3991V12.2378H62.6679V25.8435H53.8232V12.2378H53.8272ZM60.3991 23.9222V18.9805H56.096V23.9222H60.3991ZM64.4083 11.8528H66.677V17.2277H68.6796V19.2854H66.677V26.9065H64.4083V11.8528Z" fill="#231815"/>
<path d="M69.2637 24.564H75.6688V22.1332H70.5153V16.1166H80.5957V14.091H70.5153V12.1656H82.8645V18.0018H72.7841V20.2119H83.1983V22.1332H78.0369V24.564H84.1122V26.5013H69.2598V24.564H69.2637Z" fill="#231815"/>
<path d="M85.0381 12.6069H88.7611V11.3755H91.165V12.6069H94.888V14.3437H85.0421V12.6069H85.0381ZM89.0551 21.1064C86.9215 21.1064 85.3679 20.0756 85.3679 17.9858C85.3679 15.896 86.9215 14.8651 89.0551 14.8651H90.8551C92.9927 14.8651 94.5463 15.892 94.5463 17.9858C94.5463 20.0796 92.9927 21.1064 90.8551 21.1064H89.0551ZM86.0394 21.9488H88.3082V24.9531H98.7183V26.8423H86.0394V21.9528V21.9488ZM90.5412 19.2854C91.6458 19.2854 92.2775 18.8121 92.2775 17.9858C92.2775 17.1595 91.6418 16.6902 90.5412 16.6902H89.377C88.3082 16.6902 87.6406 17.1595 87.6406 17.9858C87.6406 18.8121 88.3082 19.2854 89.377 19.2854H90.5412ZM96.1158 11.8528H98.3846V15.9682H100.387V18.0259H98.3846V22.8793H96.1158V11.8568V11.8528Z" fill="#231815"/>
<path d="M100.975 23.8901H111.806V25.8315H100.975V23.8901ZM105.846 21.4433C102.874 21.4433 101.221 19.5541 101.221 16.7544C101.221 13.9546 102.874 12.0654 105.846 12.0654H106.279C109.251 12.0654 110.9 13.9546 110.9 16.7544C110.9 19.5541 109.251 21.4433 106.279 21.4433H105.846ZM106.414 19.522C107.749 19.522 108.635 18.4109 108.635 16.7544C108.635 15.0978 107.753 13.9907 106.414 13.9907H105.715C104.376 13.9907 103.494 15.1018 103.494 16.7544C103.494 18.4069 104.376 19.522 105.715 19.522H106.414ZM112.47 11.8528H114.738V26.9065H112.47V11.8528Z" fill="#231815"/>
<path d="M116.828 18.6757H127.659V20.4807H122.768V22.4582H120.4V20.4807H116.828V18.6757ZM121.298 18.0861C118.763 18.0861 117.241 16.7905 117.241 14.9494C117.241 13.1083 118.759 11.8127 121.298 11.8127H122.868C125.403 11.8127 126.92 13.1123 126.92 14.9494C126.92 16.7865 125.403 18.0861 122.868 18.0861H121.298ZM118.08 22.7911H120.349V24.9491H130.93V26.8383H118.08V22.7911ZM122.82 16.2651C123.921 16.2651 124.656 15.7276 124.656 14.9494C124.656 14.1713 123.921 13.6338 122.82 13.6338H121.35C120.249 13.6338 119.514 14.1713 119.514 14.9494C119.514 15.7276 120.249 16.2651 121.35 16.2651H122.82ZM124.755 21.1225H128.327V11.8529H130.596V23.5372H128.327V22.9797H124.755V21.1225Z" fill="#231815"/>
<path d="M31.211 6.16107C31.211 7.1117 30.4481 7.88183 29.5064 7.88183C28.5647 7.88183 27.7979 7.1117 27.7979 6.16107C27.7979 5.21044 28.5607 4.44031 29.5064 4.44031C30.4521 4.44031 31.211 5.21044 31.211 6.16107Z" fill="#DC872D"/>
<path d="M28.0713 19.498C28.0713 20.4486 27.3084 21.2187 26.3667 21.2187C25.4251 21.2187 24.6582 20.4486 24.6582 19.498C24.6582 18.5473 25.4251 17.7732 26.3667 17.7732C27.3084 17.7732 28.0713 18.5433 28.0713 19.498Z" fill="#DC872D"/>
<path d="M30.913 32.8349C30.913 33.7855 30.1502 34.5556 29.2085 34.5556C28.2668 34.5556 27.5039 33.7855 27.5039 32.8349C27.5039 31.8843 28.2668 31.1101 29.2085 31.1101C30.1502 31.1101 30.913 31.8843 30.913 32.8349Z" fill="#DC872D"/>
<path d="M24.4676 0H5.09353C4.04457 0 3.19824 0.854365 3.19824 1.9133V10.4088C3.19824 11.4677 4.04457 12.3221 5.09353 12.3221H10.8072V9.02899H6.29746V5.3829C13.1515 5.61153 12.2933 1.88522 12.2933 1.88522H17.1725V12.3221H24.4676C25.5126 12.3221 26.3629 11.4677 26.3629 10.4088V1.9133C26.3629 0.858376 25.5126 0 24.4676 0Z" fill="#DC872D"/>
<path d="M21.2694 13.3369H1.89529C0.850298 13.3369 0 14.1953 0 15.2502V23.7417C0 24.7966 0.850298 25.659 1.89529 25.659H9.56387C8.61423 24.9089 8.12551 23.9864 7.82751 23.2122C7.3666 21.9969 7.6209 20.4606 7.75599 19.9994C8.8725 16.2129 13.6366 15.9441 13.6366 15.9441C22.0521 15.6433 21.7541 21.8445 21.7541 21.8445H15.7265C15.655 20.6692 14.8524 20.4165 14.5862 20.4005C14.316 20.3844 13.6604 20.4727 13.6445 21.319C13.6246 22.1613 15.0113 22.7189 15.0113 22.7189C16.4696 23.2604 17.9635 23.8861 17.9635 23.8861C19.8072 24.7645 20.4548 25.3542 20.6813 25.663H21.2654C22.3104 25.663 23.1607 24.8047 23.1607 23.7457V15.2542C23.1607 14.1953 22.3104 13.3409 21.2654 13.3409L21.2694 13.3369Z" fill="#DC872D"/>
<path d="M24.4119 26.6738H18.8214C19.3618 27.464 19.4015 28.9 19.4015 28.9C19.0002 34.8525 12.5316 34.6238 12.5316 34.6238C4.95443 34.7281 4.88291 28.6754 4.88291 28.6754H10.9025C11.1012 30.2959 12.3051 30.1956 12.3051 30.1956C13.3581 30.1956 13.3581 29.2329 13.3581 29.2329C13.2866 28.2462 11.6297 27.7167 10.978 27.4841C10.5132 27.3236 9.46021 26.8984 8.89202 26.6738H5.03787C3.99288 26.6738 3.14258 27.5282 3.14258 28.5911V37.0826C3.14258 38.1416 3.99288 39 5.03787 39H24.4159C25.4609 39 26.3112 38.1416 26.3112 37.0826V28.5911C26.3112 27.5282 25.4609 26.6738 24.4159 26.6738H24.4119Z" fill="#DC872D"/>
</svg>
