<svg width="193" height="57" viewBox="0 0 193 57" fill="none" xmlns="http://www.w3.org/2000/svg">
<g clip-path="url(#clip0_1464_7246)">
<path d="M55.7109 29.6189H64.834V27.6724H57.2963V17.3652H60.6122V19.8805H72.5168V17.3652H75.8327V27.6724H68.295V29.6189H77.4181V32.2572H55.7109V29.6189ZM57.2963 33.1953H60.6122V36.4727H76.0766V39.2342H57.2963V33.1953ZM72.5168 25.0575V22.4954H60.6122V25.0575H72.5168Z" fill="white"/>
<path d="M79.4922 17.8871H82.8139V24.9344H89.103V17.8871H92.4189V37.7743H79.4922V17.8871ZM89.0972 34.966V27.7428H82.8081V34.966H89.0972ZM94.9566 17.3242H98.2725V25.1806H101.199V28.1883H98.2725V39.328H94.9566V17.3242Z" fill="white"/>
<path d="M102.053 35.9057H111.414V32.3527H103.882V23.5582H118.615V20.5974H103.882V17.7832H121.931V26.3139H107.198V29.5444H122.418V32.3527H114.875V35.9057H123.76V38.7375H102.047V35.9057H102.053Z" fill="white"/>
<path d="M125.102 18.4269H130.543V16.627H134.056V18.4269H139.497V20.9656H125.107V18.4269H125.102ZM130.978 30.8506C127.854 30.8506 125.589 29.3438 125.589 26.2892C125.589 23.2345 127.86 21.7278 130.978 21.7278H133.609C136.733 21.7278 139.004 23.2287 139.004 26.2892C139.004 29.3496 136.733 30.8506 133.609 30.8506H130.978ZM126.565 32.0818H129.881V36.4732H145.096V39.2346H126.565V32.0877V32.0818ZM133.15 28.1888C134.765 28.1888 135.688 27.4969 135.688 26.2892C135.688 25.0814 134.765 24.3954 133.15 24.3954H131.443C129.881 24.3954 128.905 25.0814 128.905 26.2892C128.905 27.4969 129.881 28.1888 131.443 28.1888H133.15ZM141.292 17.3246H144.608V23.3401H147.535V26.3478H144.608V33.442H141.292V17.3305V17.3246Z" fill="white"/>
<path d="M148.398 34.9191H164.229V37.7567H148.398V34.9191ZM155.518 31.3426C151.174 31.3426 148.764 28.5812 148.764 24.4888C148.764 20.3964 151.18 17.635 155.518 17.635H156.151C160.495 17.635 162.905 20.3964 162.905 24.4888C162.905 28.5812 160.495 31.3426 156.151 31.3426H155.518ZM156.348 28.5343C158.3 28.5343 159.595 26.9102 159.595 24.4888C159.595 22.0674 158.305 20.4492 156.348 20.4492H155.326C153.369 20.4492 152.08 22.0732 152.08 24.4888C152.08 26.9043 153.369 28.5343 155.326 28.5343H156.348ZM165.199 17.3242H168.514V39.328H165.199V17.3242Z" fill="white"/>
<path d="M171.57 27.2972H187.401V29.9355H180.252V32.826H176.791V29.9355H171.57V27.2972ZM178.103 26.4353C174.398 26.4353 172.174 24.5416 172.174 21.8505C172.174 19.1594 174.393 17.2656 178.103 17.2656H180.397C184.102 17.2656 186.32 19.1652 186.32 21.8505C186.32 24.5357 184.102 26.4353 180.397 26.4353H178.103ZM173.4 33.3126H176.715V36.4669H192.18V39.2284H173.4V33.3126ZM180.327 23.7735C181.936 23.7735 183.01 22.9879 183.01 21.8505C183.01 20.7131 181.936 19.9274 180.327 19.9274H178.179C176.57 19.9274 175.496 20.7131 175.496 21.8505C175.496 22.9879 176.57 23.7735 178.179 23.7735H180.327ZM183.156 30.8736H188.37V17.3243H191.686V34.4031H188.37V33.5882H183.156V30.8736Z" fill="white"/>
<path d="M46.4337 9.00546C46.4337 10.395 45.3187 11.5207 43.9424 11.5207C42.5661 11.5207 41.4453 10.395 41.4453 9.00546C41.4453 7.61593 42.5661 6.49023 43.9424 6.49023C45.3187 6.49023 46.4337 7.61593 46.4337 9.00546Z" fill="white"/>
<path d="M41.8477 28.4996C41.8477 29.8891 40.7327 31.0148 39.3564 31.0148C37.9802 31.0148 36.8594 29.8891 36.8594 28.4996C36.8594 27.1101 37.9802 25.9785 39.3564 25.9785C40.7327 25.9785 41.8477 27.1042 41.8477 28.4996Z" fill="white"/>
<path d="M45.9982 47.9937C45.9982 49.3833 44.8832 50.509 43.5069 50.509C42.1306 50.509 41.0156 49.3833 41.0156 47.9937C41.0156 46.6042 42.1306 45.4727 43.5069 45.4727C44.8832 45.4727 45.9982 46.6042 45.9982 47.9937Z" fill="white"/>
<path d="M36.5837 0H8.2622C6.72911 0 5.49219 1.24882 5.49219 2.79665V15.2145C5.49219 16.7623 6.72911 18.0111 8.2622 18.0111H16.6129V13.1976H10.0218V7.86813C20.0391 8.20232 18.7847 2.75561 18.7847 2.75561H25.9159V18.0111H36.5779C38.1051 18.0111 39.3479 16.7623 39.3479 15.2145V2.79665C39.3479 1.25468 38.0993 0 36.5779 0H36.5837Z" fill="white"/>
<path d="M31.906 19.4941H3.59032C2.06304 19.4941 0.820312 20.7488 0.820312 22.2908V34.7027C0.820312 36.2447 2.06304 37.5053 3.59032 37.5053H14.7981C13.4102 36.4089 12.6959 35.0604 12.2604 33.9288C11.5868 32.1523 11.9584 29.9068 12.1559 29.2326C13.7877 23.6979 20.7504 23.3051 20.7504 23.3051C33.05 22.8654 32.6144 31.9295 32.6144 31.9295H23.805C23.6947 30.2117 22.5274 29.8423 22.1384 29.8189C21.7435 29.7954 20.7853 29.9244 20.7621 31.1615C20.733 32.3927 22.7597 33.2077 22.7597 33.2077C24.8909 33.9992 27.0744 34.9138 27.0744 34.9138C29.7689 36.1978 30.7155 37.0597 31.0523 37.5111H31.9002C33.4274 37.5111 34.6702 36.2564 34.6702 34.7086V22.2966C34.6702 20.7488 33.4274 19.5 31.9002 19.5L31.906 19.4941Z" fill="white"/>
<path d="M36.4977 38.9883H28.3271C29.1168 40.1433 29.1691 42.2422 29.1691 42.2422C28.5826 50.9429 19.1285 50.6087 19.1285 50.6087C8.05431 50.7612 7.94397 41.9139 7.94397 41.9139H16.7418C17.0322 44.2826 18.7917 44.136 18.7917 44.136C20.3306 44.136 20.3306 42.7289 20.3306 42.7289C20.2203 41.2866 17.8045 40.5127 16.8521 40.1726C16.1727 39.9381 14.6338 39.3166 13.8034 38.9883H8.17626C6.64898 38.9883 5.40625 40.2371 5.40625 41.7908V54.2027C5.40625 55.7506 6.64898 57.0053 8.17626 57.0053H36.4977C38.025 57.0053 39.2677 55.7506 39.2677 54.2027V41.7908C39.2677 40.2371 38.025 38.9883 36.4977 38.9883Z" fill="white"/>
</g>
<defs>
<clipPath id="clip0_1464_7246">
<rect width="191.357" height="57" fill="white" transform="translate(0.820312)"/>
</clipPath>
</defs>
</svg>
