<svg width="131" height="39" viewBox="0 0 131 39" fill="none" xmlns="http://www.w3.org/2000/svg">
<g clip-path="url(#clip0_2_1187)">
<path d="M37.5557 20.2662H43.7977V18.9343H38.6404V11.8821H40.9091V13.603H49.0544V11.8821H51.3232V18.9343H46.1658V20.2662H52.4079V22.0713H37.5557V20.2662ZM38.6404 22.7132H40.9091V24.9556H51.4901V26.845H38.6404V22.7132ZM49.0544 17.1452V15.3922H40.9091V17.1452H49.0544Z" fill="white"/>
<path d="M53.8262 12.2391H56.0989V17.061H60.402V12.2391H62.6708V25.8462H53.8262V12.2391ZM60.398 23.9247V18.9825H56.0949V23.9247H60.398ZM64.4071 11.854H66.6759V17.2294H68.6784V19.2874H66.6759V26.9092H64.4071V11.854Z" fill="white"/>
<path d="M69.2628 24.5666H75.6677V22.1356H70.5144V16.1183H80.5946V14.0925H70.5144V12.167H82.8634V18.0038H72.7831V20.2141H83.1972V22.1356H78.0358V24.5666H84.115V26.5042H69.2588V24.5666H69.2628Z" fill="white"/>
<path d="M85.0371 12.6082H88.7601V11.3767H91.164V12.6082H94.8869V14.3452H85.0411V12.6082H85.0371ZM89.0581 21.1087C86.9205 21.1087 85.3709 20.0777 85.3709 17.9877C85.3709 15.8977 86.9244 14.8667 89.0581 14.8667H90.858C92.9957 14.8667 94.5492 15.8937 94.5492 17.9877C94.5492 20.0817 92.9957 21.1087 90.858 21.1087H89.0581ZM86.0384 21.9511H88.3071V24.9557H98.7172V26.8451H86.0384V21.9551V21.9511ZM90.5441 19.2874C91.6487 19.2874 92.2805 18.8141 92.2805 17.9877C92.2805 17.1613 91.6487 16.692 90.5441 16.692H89.376C88.3071 16.692 87.6396 17.1613 87.6396 17.9877C87.6396 18.8141 88.3071 19.2874 89.376 19.2874H90.5441ZM96.1147 11.8541H98.3835V15.9699H100.386V18.0278H98.3835V22.8818H96.1147V11.8581V11.8541Z" fill="white"/>
<path d="M100.974 23.8926H111.805V25.8342H100.974V23.8926ZM105.845 21.4455C102.873 21.4455 101.224 19.5561 101.224 16.7561C101.224 13.956 102.877 12.0666 105.845 12.0666H106.278C109.25 12.0666 110.899 13.956 110.899 16.7561C110.899 19.5561 109.25 21.4455 106.278 21.4455H105.845ZM106.413 19.524C107.748 19.524 108.634 18.4128 108.634 16.7561C108.634 15.0993 107.752 13.9921 106.413 13.9921H105.714C104.375 13.9921 103.493 15.1033 103.493 16.7561C103.493 18.4088 104.375 19.524 105.714 19.524H106.413ZM112.468 11.854H114.737V26.9092H112.468V11.854Z" fill="white"/>
<path d="M116.827 18.6777H127.658V20.4829H122.767V22.4605H120.399V20.4829H116.827V18.6777ZM121.297 18.088C118.762 18.088 117.24 16.7923 117.24 14.951C117.24 13.1097 118.758 11.814 121.297 11.814H122.867C125.402 11.814 126.919 13.1137 126.919 14.951C126.919 16.7882 125.402 18.088 122.867 18.088H121.297ZM118.079 22.7935H120.348V24.9517H130.928V26.8411H118.079V22.7935ZM122.819 16.2668C123.92 16.2668 124.655 15.7292 124.655 14.951C124.655 14.1727 123.92 13.6352 122.819 13.6352H121.349C120.248 13.6352 119.513 14.1727 119.513 14.951C119.513 15.7292 120.248 16.2668 121.349 16.2668H122.819ZM124.754 21.1247H128.322V11.8541H130.591V23.5396H128.322V22.982H124.754V21.1247Z" fill="white"/>
<path d="M31.21 6.16174C31.21 7.11247 30.4471 7.88268 29.5054 7.88268C28.5637 7.88268 27.7969 7.11247 27.7969 6.16174C27.7969 5.21101 28.5637 4.4408 29.5054 4.4408C30.4471 4.4408 31.21 5.21101 31.21 6.16174Z" fill="white"/>
<path d="M28.0713 19.5C28.0713 20.4507 27.3084 21.2209 26.3667 21.2209C25.4251 21.2209 24.6582 20.4507 24.6582 19.5C24.6582 18.5492 25.4251 17.775 26.3667 17.775C27.3084 17.775 28.0713 18.5452 28.0713 19.5Z" fill="white"/>
<path d="M30.912 32.8384C30.912 33.7891 30.1492 34.5593 29.2075 34.5593C28.2658 34.5593 27.5029 33.7891 27.5029 32.8384C27.5029 31.8876 28.2658 31.1134 29.2075 31.1134C30.1492 31.1134 30.912 31.8876 30.912 32.8384Z" fill="white"/>
<path d="M24.4714 0H5.09351C4.04456 0 3.19824 0.854454 3.19824 1.9135V10.4099C3.19824 11.4689 4.04456 12.3234 5.09351 12.3234H10.8071V9.02993H6.29743V5.38346C13.1514 5.61212 12.2932 1.88541 12.2932 1.88541H17.1724V12.3234H24.4674C25.5124 12.3234 26.3626 11.4689 26.3626 10.4099V1.9135C26.3626 0.858465 25.5084 0 24.4674 0H24.4714Z" fill="white"/>
<path d="M21.2691 13.3383H1.89527C0.850289 13.3383 0 14.1967 0 15.2518V23.7441C0 24.7992 0.850289 25.6616 1.89527 25.6616H9.56376C8.61414 24.9115 8.12542 23.9888 7.82742 23.2146C7.36652 21.9991 7.62081 20.4627 7.7559 20.0014C8.87241 16.2145 13.6364 15.9457 13.6364 15.9457C22.0519 15.6449 21.7539 21.8467 21.7539 21.8467H15.7264C15.6509 20.6713 14.8522 20.4186 14.586 20.4025C14.3158 20.3865 13.6602 20.4748 13.6444 21.3212C13.6245 22.1636 15.0112 22.7212 15.0112 22.7212C16.4694 23.2628 17.9633 23.8886 17.9633 23.8886C19.807 24.7671 20.4546 25.3568 20.6851 25.6657H21.2652C22.3101 25.6657 23.1604 24.8072 23.1604 23.7482V15.2558C23.1604 14.1967 22.3101 13.3423 21.2652 13.3423L21.2691 13.3383Z" fill="white"/>
<path d="M24.4118 26.6766H18.8213C19.3617 27.4669 19.3975 28.903 19.3975 28.903C18.9962 34.8561 12.5276 34.6275 12.5276 34.6275C4.9505 34.7318 4.87501 28.6784 4.87501 28.6784H10.8946C11.0932 30.299 12.2972 30.1987 12.2972 30.1987C13.3501 30.1987 13.3501 29.236 13.3501 29.236C13.2746 28.2492 11.6217 27.7196 10.9701 27.487C10.5052 27.3265 9.45226 26.9013 8.88408 26.6766H5.03394C3.98896 26.6766 3.13867 27.5311 3.13867 28.5941V37.0865C3.13867 38.1456 3.98896 39.004 5.03394 39.004H24.4118C25.4568 39.004 26.3071 38.1456 26.3071 37.0865V28.5941C26.3071 27.5311 25.4568 26.6766 24.4118 26.6766Z" fill="white"/>
</g>
<defs>
<clipPath id="clip0_2_1187">
<rect width="130.929" height="39" fill="white"/>
</clipPath>
</defs>
</svg>
